<?xml version="1.0" encoding="UTF-8" standalone="no"?>
<svg xmlns:xlink="http://www.w3.org/1999/xlink" height="12.1px" width="11.9px" xmlns="http://www.w3.org/2000/svg">
  <g transform="matrix(1.0, 0.0, 0.0, 1.0, 0.0, -1.0)">
    <path d="M11.85 2.9 Q12.15 3.95 11.1 5.0 L8.45 7.1 11.1 9.25 Q12.65 10.85 11.15 12.4 9.65 13.85 8.1 12.25 L6.0 9.6 3.85 12.2 Q2.2 13.8 0.7 12.35 -0.75 10.75 0.85 9.2 L3.5 7.1 0.9 4.95 0.85 4.9 Q-0.75 3.35 0.7 1.75 2.2 0.3 3.85 1.9 L3.9 1.95 6.0 4.5 8.1 1.85 Q9.65 0.25 11.15 1.7 11.75 2.3 11.85 2.9" fill="#ffffff" fill-rule="evenodd" stroke="none"/>
  </g>
</svg>
