<?xml version="1.0" encoding="UTF-8" standalone="no"?>
<svg xmlns:xlink="http://www.w3.org/1999/xlink" height="12.05px" width="13.0px" xmlns="http://www.w3.org/2000/svg">
  <g transform="matrix(1.0, 0.0, 0.0, 1.0, -0.05, 2.9)">
    <path d="M9.0 5.15 L9.0 1.1 4.05 1.1 4.05 6.65 Q4.05 7.75 2.95 8.05 4.1 7.8 4.1 6.65 L4.1 5.15 9.0 5.15 M0.05 -0.5 L0.05 -0.65 0.05 -0.9 Q0.05 -2.9 2.0 -2.9 L11.1 -2.9 Q13.05 -2.9 13.05 -0.9 L13.0 -0.3 13.0 6.55 13.05 7.15 Q13.05 9.15 11.1 9.15 L2.0 9.15 Q0.05 9.15 0.05 7.15 L0.05 6.9 0.05 6.65 0.05 -0.5" fill="#ffffff" fill-rule="evenodd" stroke="none"/>
    <path d="M3.65 9.05 Q3.15 9.05 3.15 7.1 3.15 5.2 3.65 5.2 L5.95 5.2 Q6.45 5.2 6.45 7.1 L6.45 7.35 6.45 7.7 6.45 7.6 Q6.45 6.5 6.15 6.2 L5.95 6.15 Q5.8 6.15 5.7 6.25 5.45 6.5 5.45 7.6 L5.45 9.05 3.65 9.05" fill="#ffffff" fill-rule="evenodd" stroke="none"/>
  </g>
</svg>
